<svg xmlns="http://www.w3.org/2000/svg" version="1.1" xmlns:xlink="http://www.w3.org/1999/xlink" xmlns:svgjs="http://svgjs.dev/svgjs" width="1000" height="221" viewBox="0 0 1000 221"><g transform="matrix(1,0,0,1,0.16994382022460286,-0.19442405063284696)"><svg viewBox="0 0 356 79" data-background-color="#ffffff" preserveAspectRatio="xMidYMid meet" height="221" width="1000" xmlns="http://www.w3.org/2000/svg" xmlns:xlink="http://www.w3.org/1999/xlink"><g id="tight-bounds" transform="matrix(1,0,0,1,-0.06049999999996203,0.06949999999997658)"><svg viewBox="0 0 356.12052 78.8606119038014" height="78.8606119038014" width="356.12052"><g><svg viewBox="0 0 356.12052 78.8606119038014" height="78.8606119038014" width="356.12052"><g><svg viewBox="0 0 356.12052 78.8606119038014" height="78.8606119038014" width="356.12052"><g><path d="M0 78.861v-78.861h356.121v78.861z" fill="#f0cf90" stroke="transparent" stroke-width="0" rx="0%" data-fill-palette-color="tertiary"></path><path d="M3.283 75.577v-72.294h349.554v72.294z" fill="#ffffff" stroke="transparent" stroke-width="0" rx="0%" data-fill-palette-color="quaternary"></path><path d="M9.85 69.011v-59.161h336.421v59.161z" fill="#f0cf90" stroke="transparent" stroke-width="0" data-fill-palette-color="tertiary"></path></g><g transform="matrix(1,0,0,1,19.69974,19.69974)"><svg viewBox="0 0 316.72104 39.4611319038014" height="39.4611319038014" width="316.72104"><g><svg viewBox="0 0 316.72104 39.4611319038014" height="39.4611319038014" width="316.72104"><g transform="matrix(1,0,0,1,0,0)"><svg width="316.72104" viewBox="0.9500000476837158 -38.75 322.2200012207031 40.150001525878906" height="39.4611319038014" data-palette-color="#ffffff"><path d="M12.8 1.05Q6.85 1.05 3.9-2.8 0.95-6.65 0.95-13.25L0.95-13.25Q0.95-18.7 3.3-23.35 5.65-28 9.85-30.75 14.05-33.5 19.3-33.5L19.3-33.5Q24.4-33.5 27.48-30.03 30.55-26.55 30.55-19.65L30.55-19.65Q30.55-14.75 28.28-9.93 26-5.1 21.95-2.02 17.9 1.05 12.8 1.05L12.8 1.05ZM13.5-3.45Q15.95-3.45 18.3-6.2 20.65-8.95 22.13-13.25 23.6-17.55 23.6-22L23.6-22Q23.6-25.4 22.48-26.93 21.35-28.45 18.5-28.45L18.5-28.45Q15.35-28.45 12.9-25.7 10.45-22.95 9.1-18.85 7.75-14.75 7.75-10.9L7.75-10.9Q7.75-8.65 8.58-6.95 9.4-5.25 10.73-4.35 12.05-3.45 13.5-3.45L13.5-3.45ZM53.35-0.15Q53.15 0.7 52.45 1.03 51.75 1.35 50.6 1.35L50.6 1.35Q47.15 1.35 47.15-0.2L47.15-0.2 47.45-2.1Q46.05-1.05 44.15 0 42.25 1.05 41 1.05L41 1.05Q33.6 1.05 33.6-3.8L33.6-3.8Q33.6-12.05 38.55-21.7L38.55-21.7Q39.15-22.85 39.82-23.35 40.5-23.85 42.15-23.85L42.15-23.85Q43.9-23.85 44.77-23.38 45.65-22.9 45.65-22.25L45.65-22.25Q45.65-22.1 45.1-21.35L45.1-21.35Q44.55-20.7 44.15-20.05L44.15-20.05Q39.45-12.2 39.45-4.75L39.45-4.75Q39.45-4.1 39.95-3.6 40.45-3.1 40.85-3.1L40.85-3.1Q41.95-3.1 44.57-4.15 47.2-5.2 48.6-6.3L48.6-6.3 49.6-10.35Q51.4-17.6 51.85-19.25L51.85-19.25Q52.4-21.25 53.27-22.53 54.15-23.8 56.05-23.8L56.05-23.8Q58.7-23.8 58.7-22.2L58.7-22.2Q58.7-21.95 58.57-21.58 58.45-21.2 58.4-20.95L58.4-20.95 56.4-12.85Q54-3.2 53.35-0.15L53.35-0.15ZM70.7-18.1L67.55-5.5Q67.55-4.35 68.15-3.68 68.75-3 69.85-3L69.85-3Q71.35-3 72.32-3.88 73.3-4.75 74.4-6.35L74.4-6.35Q75.2-7.5 75.7-8 76.2-8.5 76.85-8.5L76.85-8.5Q78.15-8.5 78.7-8.18 79.25-7.85 79.25-6.85L79.25-6.85Q79.25-6.4 79.15-5.78 79.05-5.15 78.9-4.85L78.9-4.85Q77.7-2.3 74.97-0.45 72.25 1.4 68.8 1.4L68.8 1.4Q65.35 1.4 63.6-0.28 61.85-1.95 61.85-5.05L61.85-5.05Q61.85-5.5 62.3-7.4 62.75-9.3 63.45-11.95L63.45-11.95 64.85-17.65 61.8-17.4Q61.2-17.4 60.9-17.85 60.6-18.3 60.6-18.95L60.6-18.95Q60.6-20.2 61.5-21.45L61.5-21.45Q61.6-21.6 62.5-21.75 63.4-21.9 64.7-22.05L64.7-22.05 66.05-22.2 67.75-29.5Q68.25-30.8 69.27-31.53 70.3-32.25 71.2-32.25L71.2-32.25Q72.2-32.25 72.9-31.65 73.6-31.05 73.65-30.25L73.65-30.25 71.85-22.75Q73.8-23 75.47-23.18 77.15-23.35 78.1-23.35L78.1-23.35Q80-23.35 80-21.15L80-21.15Q80-20.3 79.27-19.63 78.55-18.95 77.7-18.8L77.7-18.8 70.7-18.1ZM104.14-37.05Q104.34-37.8 105.32-38.27 106.29-38.75 107.39-38.75L107.39-38.75Q108.29-38.75 109.34-38.35 110.39-37.95 110.39-37.2L110.39-37.2 107.24-24.9Q103.09-8.75 102.39-5.2L102.39-5.2Q102.09-3.7 102.09-2.9L102.09-2.9Q102.09-1.55 102.39-0.25L102.39-0.25Q102.29 0.05 101.62 0.35 100.94 0.65 100.39 0.65L100.39 0.65Q99.39 0.65 98.19 0.4 96.99 0.15 96.69-0.15L96.69-0.15Q96.24-0.55 96.24-1.75L96.24-1.75Q96.24-2.65 96.44-3.45L96.44-3.45Q95.39-1.95 93.27-0.98 91.14 0 89.84 0L89.84 0Q82.19 0 82.19-8.25L82.19-8.25Q82.19-11.85 83.82-15.45 85.44-19.05 88.47-21.4 91.49-23.75 95.49-23.75L95.49-23.75Q96.59-23.75 97.94-22.88 99.29-22 100.14-20.9L100.14-20.9Q101.24-25.55 102.09-28.65L102.09-28.65Q102.49-30.3 103.02-32.43 103.54-34.55 104.14-37.05L104.14-37.05ZM99.04-16.25Q98.74-17.35 97.62-18.28 96.49-19.2 95.79-19.2L95.79-19.2Q93.49-19.2 91.49-17.7 89.49-16.2 88.32-13.8 87.14-11.4 87.14-8.85L87.14-8.85Q87.14-6.95 87.84-5.45 88.54-3.95 89.99-3.95L89.99-3.95Q91.24-3.95 92.92-4.78 94.59-5.6 95.89-6.93 97.19-8.25 97.49-9.65L97.49-9.65 99.04-16.25ZM117.99 1.05Q113.59 1.05 111.14-1.95 108.69-4.95 108.69-9.6L108.69-9.6Q108.69-13.5 110.57-16.95 112.44-20.4 115.69-22.5 118.94-24.6 122.84-24.6L122.84-24.6Q126.69-24.6 129.17-22.08 131.64-19.55 131.64-14.65L131.64-14.65Q131.64-11.2 129.74-7.5 127.84-3.8 124.67-1.38 121.49 1.05 117.99 1.05L117.99 1.05ZM118.74-2.95Q120.34-2.95 121.97-4.95 123.59-6.95 124.64-10 125.69-13.05 125.69-15.95L125.69-15.95Q125.69-20.4 121.99-20.4L121.99-20.4Q119.94-20.4 118.24-18.45 116.54-16.5 115.54-13.63 114.54-10.75 114.54-8.25L114.54-8.25Q114.54-6.8 115.19-5.58 115.84-4.35 116.82-3.65 117.79-2.95 118.74-2.95L118.74-2.95ZM143.39 1.05Q138.99 1.05 136.54-1.95 134.09-4.95 134.09-9.6L134.09-9.6Q134.09-13.5 135.96-16.95 137.84-20.4 141.09-22.5 144.34-24.6 148.24-24.6L148.24-24.6Q152.09-24.6 154.56-22.08 157.04-19.55 157.04-14.65L157.04-14.65Q157.04-11.2 155.14-7.5 153.24-3.8 150.06-1.38 146.89 1.05 143.39 1.05L143.39 1.05ZM144.14-2.95Q145.74-2.95 147.36-4.95 148.99-6.95 150.04-10 151.09-13.05 151.09-15.95L151.09-15.95Q151.09-20.4 147.39-20.4L147.39-20.4Q145.34-20.4 143.64-18.45 141.94-16.5 140.94-13.63 139.94-10.75 139.94-8.25L139.94-8.25Q139.94-6.8 140.59-5.58 141.24-4.35 142.21-3.65 143.19-2.95 144.14-2.95L144.14-2.95ZM164.99-1.9Q164.94-1.6 164.76-0.73 164.59 0.15 163.91 0.5 163.24 0.85 161.79 0.85L161.79 0.85Q160.14 0.85 159.39 0.5 158.64 0.15 158.64-1L158.64-1 161.04-10.55Q163.04-18.8 163.69-21.05L163.69-21.05 162.44-22.55Q162.29-22.7 162.29-22.9L162.29-22.9Q162.29-23.4 163.39-23.73 164.49-24.05 166.44-24.05L166.44-24.05Q168.19-24.05 168.79-23.08 169.39-22.1 169.54-20.55L169.54-20.55 169.19-19.25Q170.79-21.2 172.91-22.48 175.04-23.75 176.69-23.75L176.69-23.75Q178.84-23.75 180.04-23 181.24-22.25 181.24-21.05L181.24-21.05Q181.24-20 180.51-18.88 179.79-17.75 178.69-16.98 177.59-16.2 176.54-16.1L176.54-16.1Q175.54-16.1 175.19-16.35 174.84-16.6 174.84-17.1L174.84-17.1 175.14-18.75Q171.14-17.65 167.89-13.45L167.89-13.45 164.99-1.9ZM215.83-18.25Q217.88-18.25 218.86-17.53 219.83-16.8 220.08-15.78 220.33-14.75 220.33-13.15L220.33-13.15Q220.33-8.95 218.03-5.73 215.73-2.5 212.03-0.73 208.33 1.05 204.18 1.05L204.18 1.05Q198.18 1.05 195.38-2.3 192.58-5.65 192.58-10.5L192.58-10.5Q192.58-16.25 195.66-21.48 198.73-26.7 203.26-29.88 207.78-33.05 211.78-33.05L211.78-33.05Q217.38-33.05 219.88-30.83 222.38-28.6 222.38-24.35L222.38-24.35Q222.38-22.85 221.26-21.8 220.13-20.75 218.23-20.75L218.23-20.75Q216.73-20.75 216.21-21.55 215.68-22.35 215.68-23.6L215.68-23.6 215.73-25.2Q215.73-26.1 214.73-26.95 213.73-27.8 212.88-27.8L212.88-27.8Q210.08-27.8 206.73-25.28 203.38-22.75 201.08-18.48 198.78-14.2 198.78-9.2L198.78-9.2Q198.78-6.9 200.58-5.45 202.38-4 205.13-4L205.13-4Q207.08-4 209.23-5.18 211.38-6.35 212.86-8.38 214.33-10.4 214.33-12.7L214.33-12.7Q213.63-12.6 212.28-12.25L212.28-12.25Q210.33-11.75 208.96-11.5 207.58-11.25 206.23-11.25L206.23-11.25Q204.63-11.25 203.86-11.68 203.08-12.1 203.08-13.2L203.08-13.2Q203.08-13.95 203.46-14.95 203.83-15.95 204.38-16.4L204.38-16.4Q206.88-17.05 210.16-17.65 213.43-18.25 215.83-18.25L215.83-18.25ZM233.43 1.05Q229.03 1.05 226.58-1.95 224.13-4.95 224.13-9.6L224.13-9.6Q224.13-13.5 226-16.95 227.88-20.4 231.13-22.5 234.38-24.6 238.28-24.6L238.28-24.6Q242.13-24.6 244.6-22.08 247.08-19.55 247.08-14.65L247.08-14.65Q247.08-11.2 245.18-7.5 243.28-3.8 240.1-1.38 236.93 1.05 233.43 1.05L233.43 1.05ZM234.18-2.95Q235.78-2.95 237.4-4.95 239.03-6.95 240.08-10 241.13-13.05 241.13-15.95L241.13-15.95Q241.13-20.4 237.43-20.4L237.43-20.4Q235.38-20.4 233.68-18.45 231.98-16.5 230.98-13.63 229.98-10.75 229.98-8.25L229.98-8.25Q229.98-6.8 230.63-5.58 231.28-4.35 232.25-3.65 233.23-2.95 234.18-2.95L234.18-2.95ZM258.83 1.05Q254.43 1.05 251.98-1.95 249.53-4.95 249.53-9.6L249.53-9.6Q249.53-13.5 251.4-16.95 253.28-20.4 256.53-22.5 259.78-24.6 263.68-24.6L263.68-24.6Q267.53-24.6 270-22.08 272.48-19.55 272.48-14.65L272.48-14.65Q272.48-11.2 270.58-7.5 268.68-3.8 265.5-1.38 262.33 1.05 258.83 1.05L258.83 1.05ZM259.58-2.95Q261.18-2.95 262.8-4.95 264.43-6.95 265.48-10 266.53-13.05 266.53-15.95L266.53-15.95Q266.53-20.4 262.83-20.4L262.83-20.4Q260.78-20.4 259.08-18.45 257.38-16.5 256.38-13.63 255.38-10.75 255.38-8.25L255.38-8.25Q255.38-6.8 256.03-5.58 256.68-4.35 257.65-3.65 258.63-2.95 259.58-2.95L259.58-2.95ZM296.72-37.05Q296.92-37.8 297.9-38.27 298.87-38.75 299.97-38.75L299.97-38.75Q300.87-38.75 301.92-38.35 302.97-37.95 302.97-37.2L302.97-37.2 299.82-24.9Q295.67-8.75 294.97-5.2L294.97-5.2Q294.67-3.7 294.67-2.9L294.67-2.9Q294.67-1.55 294.97-0.25L294.97-0.25Q294.87 0.05 294.2 0.35 293.52 0.65 292.97 0.65L292.97 0.65Q291.97 0.65 290.77 0.4 289.57 0.15 289.27-0.15L289.27-0.15Q288.82-0.55 288.82-1.75L288.82-1.75Q288.82-2.65 289.02-3.45L289.02-3.45Q287.97-1.95 285.85-0.98 283.72 0 282.42 0L282.42 0Q274.77 0 274.77-8.25L274.77-8.25Q274.77-11.85 276.4-15.45 278.02-19.05 281.05-21.4 284.07-23.75 288.07-23.75L288.07-23.75Q289.17-23.75 290.52-22.88 291.87-22 292.72-20.9L292.72-20.9Q293.82-25.55 294.67-28.65L294.67-28.65Q295.07-30.3 295.6-32.43 296.12-34.55 296.72-37.05L296.72-37.05ZM291.62-16.25Q291.32-17.35 290.2-18.28 289.07-19.2 288.37-19.2L288.37-19.2Q286.07-19.2 284.07-17.7 282.07-16.2 280.9-13.8 279.72-11.4 279.72-8.85L279.72-8.85Q279.72-6.95 280.42-5.45 281.12-3.95 282.57-3.95L282.57-3.95Q283.82-3.95 285.5-4.78 287.17-5.6 288.47-6.93 289.77-8.25 290.07-9.65L290.07-9.65 291.62-16.25ZM317.47-19.35Q316.87-19.65 315.97-19.65L315.97-19.65Q313.72-19.65 311.47-18.75 309.22-17.85 309.22-16.45L309.22-16.45Q309.22-15.45 310.12-14.85 311.02-14.25 312.97-13.5L312.97-13.5Q315.07-12.65 316.37-11.9 317.67-11.15 318.65-9.73 319.62-8.3 319.62-6.1L319.62-6.1Q319.62-2.5 316.65-0.58 313.67 1.35 308.67 1.35L308.67 1.35Q306.22 1.35 304.12 0.6 302.02-0.15 300.8-1.33 299.57-2.5 299.47-3.65L299.47-3.65Q299.47-4.85 300.52-5.63 301.57-6.4 303.47-6.65L303.47-6.65Q303.52-5.65 304.52-4.78 305.52-3.9 306.9-3.38 308.27-2.85 309.27-2.85L309.27-2.85Q310.97-2.85 312.37-3.78 313.77-4.7 313.77-5.95L313.77-5.95Q313.77-8.25 309.32-9.6L309.32-9.6Q306.47-10.45 304.95-12.3 303.42-14.15 303.42-16.2L303.42-16.2Q303.42-20.25 307.1-22.03 310.77-23.8 316.47-23.8L316.47-23.8Q319.67-23.8 321.42-23.05 323.17-22.3 323.17-20.45L323.17-20.45Q323.17-19.2 322.25-18.25 321.32-17.3 319.62-17.3L319.62-17.3Q318.12-17.3 317.7-17.53 317.27-17.75 317.22-18.3L317.22-18.3Q317.22-18.8 317.47-19.35L317.47-19.35Z" opacity="1" transform="matrix(1,0,0,1,0,0)" fill="#ffffff" class="undefined-text-0" data-fill-palette-color="quaternary" id="text-0"></path></svg></g></svg></g></svg></g></svg></g><g></g></svg></g><defs></defs></svg><rect width="356.12052" height="78.8606119038014" fill="none" stroke="none" visibility="hidden"></rect></g></svg></g></svg>